<svg width="64" height="64" viewBox="0 0 64 64" fill="none" xmlns="http://www.w3.org/2000/svg">
<rect x="0.5" y="0.5" width="63" height="63" rx="31.5" stroke="#36392D"/>
<path fill-rule="evenodd" clip-rule="evenodd" d="M27.1079 28.2519C27.3557 28.5504 27.3174 28.9956 27.0224 29.2464L24.613 31.2941H41.3023C41.6876 31.2941 42 31.6102 42 32C42 32.3898 41.6876 32.7059 41.3023 32.7059H24.613L27.0224 34.7536C27.3174 35.0044 27.3557 35.4496 27.1079 35.7481C26.86 36.0466 26.42 36.0853 26.1249 35.8346L22.2593 32.5493C22.2403 32.5337 22.222 32.517 22.2044 32.4992C22.1467 32.441 22.101 32.3745 22.0675 32.3033C22.058 32.2831 22.0495 32.2625 22.042 32.2417C22.0282 32.2035 22.0176 32.1637 22.0105 32.1227C22.0035 32.0821 22 32.041 22 32C22 31.959 22.0035 31.9179 22.0105 31.8773C22.0176 31.8363 22.0282 31.7965 22.042 31.7583C22.0495 31.7375 22.058 31.7169 22.0675 31.6967C22.101 31.6255 22.1467 31.5591 22.2043 31.5008C22.2219 31.483 22.2403 31.4663 22.2593 31.4507L26.1249 28.1654C26.42 27.9147 26.86 27.9534 27.1079 28.2519ZM22.2334 32.5269C22.2398 32.5326 22.2463 32.5383 22.2529 32.5438L22.2334 32.5269Z" fill="#36392D"/>
</svg>
