<svg width="64" height="64" viewBox="0 0 64 64" fill="none" xmlns="http://www.w3.org/2000/svg">
<rect x="0.5" y="0.5" width="63" height="63" rx="31.5" stroke="#36392D"/>
<path fill-rule="evenodd" clip-rule="evenodd" d="M36.8407 28.1953C37.1411 27.9349 37.6281 27.9349 37.9285 28.1953L41.7747 31.5286C41.8484 31.5925 41.9041 31.6662 41.9416 31.7448C41.9745 31.8134 41.9944 31.8878 41.999 31.9657C41.9997 31.9771 42 31.9885 42 32C42 32.0904 41.9792 32.1766 41.9416 32.2552C41.9041 32.3338 41.8484 32.4075 41.7747 32.4714L37.9285 35.8047C37.6281 36.0651 37.1411 36.0651 36.8407 35.8047C36.5403 35.5444 36.5403 35.1223 36.8407 34.8619L39.3737 32.6667H22.7692C22.3444 32.6667 22 32.3682 22 32C22 31.6318 22.3444 31.3333 22.7692 31.3333H39.3737L36.8407 29.1381C36.5403 28.8777 36.5403 28.4556 36.8407 28.1953Z" fill="#36392D"/>
</svg>
